<svg width="251" height="198" viewBox="0 0 251 198" fill="none" xmlns="http://www.w3.org/2000/svg">
<path d="M250.5 174.938H0.5V175.063H250.5V174.938Z" fill="#EBEBEB"/>
<path d="M119 152.638H22.4555C21.6991 152.637 20.9742 152.336 20.4399 151.8C19.9056 151.265 19.6055 150.54 19.6055 149.783V14.0683C19.6121 13.3163 19.9151 12.5973 20.4487 12.0674C20.9823 11.5375 21.7035 11.2396 22.4555 11.2383H119C119.758 11.2383 120.484 11.5391 121.019 12.0745C121.555 12.6099 121.855 13.3361 121.855 14.0933V149.783C121.855 150.54 121.555 151.267 121.019 151.802C120.484 152.337 119.758 152.638 119 152.638ZM22.4555 11.3383C21.7323 11.3396 21.0392 11.6278 20.5283 12.1396C20.0174 12.6515 19.7305 13.3451 19.7305 14.0683V149.783C19.7305 150.506 20.0174 151.2 20.5283 151.712C21.0392 152.224 21.7323 152.512 22.4555 152.513H119C119.724 152.512 120.418 152.224 120.929 151.712C121.441 151.201 121.729 150.507 121.73 149.783V14.0683C121.729 13.3446 121.441 12.651 120.929 12.1393C120.418 11.6277 119.724 11.3396 119 11.3383H22.4555Z" fill="#EBEBEB"/>
<path d="M227.155 152.638H130.605C129.848 152.637 129.123 152.336 128.588 151.801C128.053 151.265 127.751 150.54 127.75 149.783V14.0683C127.758 13.3158 128.062 12.5968 128.596 12.0671C129.131 11.5373 129.853 11.2396 130.605 11.2383H227.155C227.906 11.2409 228.626 11.5394 229.159 12.0691C229.691 12.5989 229.993 13.3172 230 14.0683V149.783C230 150.539 229.701 151.263 229.167 151.799C228.634 152.334 227.91 152.636 227.155 152.638ZM130.605 11.3383C129.881 11.3396 129.188 11.6277 128.676 12.1393C128.164 12.651 127.876 13.3446 127.875 14.0683V149.783C127.876 150.507 128.164 151.201 128.676 151.712C129.188 152.224 129.881 152.512 130.605 152.513H227.155C227.879 152.512 228.572 152.224 229.084 151.712C229.596 151.201 229.884 150.507 229.885 149.783V14.0683C229.884 13.3446 229.596 12.651 229.084 12.1393C228.572 11.6277 227.879 11.3396 227.155 11.3383H130.605Z" fill="#EBEBEB"/>
<path d="M100.719 179.698H87.7188V179.823H100.719V179.698Z" fill="#EBEBEB"/>
<path d="M53.7805 178.344H26.7305V178.469H53.7805V178.344Z" fill="#EBEBEB"/>
<path d="M87.2186 184.344H74.0586V184.469H87.2186V184.344Z" fill="#EBEBEB"/>
<path d="M149.028 183.504H129.613V183.629H149.028V183.504Z" fill="#EBEBEB"/>
<path d="M158.825 183.504H153.48V183.629H158.825V183.504Z" fill="#EBEBEB"/>
<path d="M225.456 181.394H198.176V181.519H225.456V181.394Z" fill="#EBEBEB"/>
<path d="M58.32 63.0732H95.32C96.0719 63.0732 96.793 63.3719 97.3246 63.9036C97.8563 64.4353 98.155 65.1564 98.155 65.9082V174.938H55.5V65.9032C55.5013 65.1548 55.7985 64.4373 56.3268 63.9071C56.8551 63.3769 57.5716 63.0772 58.32 63.0732Z" fill="#F5F5F5"/>
<path d="M64.5312 69.6836H59.0312V81.9286H64.5312V69.6836Z" fill="#EBEBEB"/>
<path d="M94.6094 69.6836H89.1094V81.9286H94.6094V69.6836Z" fill="#EBEBEB"/>
<path d="M74.5547 69.6836H69.0547V81.9286H74.5547V69.6836Z" fill="#EBEBEB"/>
<path d="M84.5859 69.6836H79.0859V81.9286H84.5859V69.6836Z" fill="#EBEBEB"/>
<path d="M64.5312 89.0137H59.0312V101.259H64.5312V89.0137Z" fill="#EBEBEB"/>
<path d="M94.6094 89.0137H89.1094V101.259H94.6094V89.0137Z" fill="#EBEBEB"/>
<path d="M74.5547 89.0137H69.0547V101.259H74.5547V89.0137Z" fill="#EBEBEB"/>
<path d="M84.5859 89.0137H79.0859V101.259H84.5859V89.0137Z" fill="#EBEBEB"/>
<path d="M64.5312 108.344H59.0312V120.589H64.5312V108.344Z" fill="#EBEBEB"/>
<path d="M94.6094 108.344H89.1094V120.589H94.6094V108.344Z" fill="#EBEBEB"/>
<path d="M74.5547 108.344H69.0547V120.589H74.5547V108.344Z" fill="#EBEBEB"/>
<path d="M84.5859 108.344H79.0859V120.589H84.5859V108.344Z" fill="#EBEBEB"/>
<path d="M64.5312 127.674H59.0312V139.919H64.5312V127.674Z" fill="#EBEBEB"/>
<path d="M94.6094 127.674H89.1094V139.919H94.6094V127.674Z" fill="#EBEBEB"/>
<path d="M74.5547 127.674H69.0547V139.919H74.5547V127.674Z" fill="#EBEBEB"/>
<path d="M84.5859 127.674H79.0859V139.919H84.5859V127.674Z" fill="#EBEBEB"/>
<path d="M64.5312 147.004H59.0312V159.249H64.5312V147.004Z" fill="#EBEBEB"/>
<path d="M94.6094 147.004H89.1094V159.249H94.6094V147.004Z" fill="#EBEBEB"/>
<path d="M74.5547 147.004H69.0547V159.249H74.5547V147.004Z" fill="#EBEBEB"/>
<path d="M84.5859 147.004H79.0859V159.249H84.5859V147.004Z" fill="#EBEBEB"/>
<path d="M189.499 73.2383H215.999C216.301 73.2383 216.601 73.2979 216.881 73.4137C217.16 73.5296 217.415 73.6994 217.629 73.9134C217.843 74.1274 218.012 74.3815 218.128 74.6612C218.244 74.9408 218.304 75.2406 218.304 75.5433V174.938H187.219V75.5483C187.217 74.9404 187.456 74.3566 187.883 73.924C188.31 73.4913 188.891 73.2449 189.499 73.2383Z" fill="#F5F5F5"/>
<path d="M196.16 79.248H191.16V90.378H196.16V79.248Z" fill="#EBEBEB"/>
<path d="M205.273 79.248H200.273V90.378H205.273V79.248Z" fill="#EBEBEB"/>
<path d="M214.391 79.248H209.391V90.378H214.391V79.248Z" fill="#EBEBEB"/>
<path d="M196.16 96.8232H191.16V107.953H196.16V96.8232Z" fill="#EBEBEB"/>
<path d="M205.273 96.8232H200.273V107.953H205.273V96.8232Z" fill="#EBEBEB"/>
<path d="M214.391 96.8232H209.391V107.953H214.391V96.8232Z" fill="#EBEBEB"/>
<path d="M196.16 114.398H191.16V125.528H196.16V114.398Z" fill="#EBEBEB"/>
<path d="M205.273 114.398H200.273V125.528H205.273V114.398Z" fill="#EBEBEB"/>
<path d="M214.391 114.398H209.391V125.528H214.391V114.398Z" fill="#EBEBEB"/>
<path d="M196.16 131.969H191.16V143.099H196.16V131.969Z" fill="#EBEBEB"/>
<path d="M205.273 131.969H200.273V143.099H205.273V131.969Z" fill="#EBEBEB"/>
<path d="M214.391 131.969H209.391V143.099H214.391V131.969Z" fill="#EBEBEB"/>
<path d="M196.16 149.544H191.16V160.674H196.16V149.544Z" fill="#EBEBEB"/>
<path d="M205.273 149.544H200.273V160.674H205.273V149.544Z" fill="#EBEBEB"/>
<path d="M214.391 149.544H209.391V160.674H214.391V149.544Z" fill="#EBEBEB"/>
<path d="M128.795 44.7939H171.84C172.714 44.7939 173.552 45.1411 174.17 45.759C174.788 46.377 175.135 47.2151 175.135 48.0889V174.939H125.5V48.0889C125.5 47.2151 125.847 46.377 126.465 45.759C127.083 45.1411 127.921 44.7939 128.795 44.7939Z" fill="#F5F5F5"/>
<path d="M136.021 52.4834H129.621V66.7284H136.021V52.4834Z" fill="#EBEBEB"/>
<path d="M171.013 52.4834H164.613V66.7284H171.013V52.4834Z" fill="#EBEBEB"/>
<path d="M147.685 52.4834H141.285V66.7284H147.685V52.4834Z" fill="#EBEBEB"/>
<path d="M159.349 52.4834H152.949V66.7284H159.349V52.4834Z" fill="#EBEBEB"/>
<path d="M136.021 74.9736H129.621V89.2186H136.021V74.9736Z" fill="#EBEBEB"/>
<path d="M171.013 74.9736H164.613V89.2186H171.013V74.9736Z" fill="#EBEBEB"/>
<path d="M147.685 74.9736H141.285V89.2186H147.685V74.9736Z" fill="#EBEBEB"/>
<path d="M159.349 74.9736H152.949V89.2186H159.349V74.9736Z" fill="#EBEBEB"/>
<path d="M136.021 97.4639H129.621V111.709H136.021V97.4639Z" fill="#EBEBEB"/>
<path d="M171.013 97.4639H164.613V111.709H171.013V97.4639Z" fill="#EBEBEB"/>
<path d="M147.685 97.4639H141.285V111.709H147.685V97.4639Z" fill="#EBEBEB"/>
<path d="M159.349 97.4639H152.949V111.709H159.349V97.4639Z" fill="#EBEBEB"/>
<path d="M136.021 119.953H129.621V134.198H136.021V119.953Z" fill="#EBEBEB"/>
<path d="M171.013 119.953H164.613V134.198H171.013V119.953Z" fill="#EBEBEB"/>
<path d="M147.685 119.953H141.285V134.198H147.685V119.953Z" fill="#EBEBEB"/>
<path d="M159.349 119.953H152.949V134.198H159.349V119.953Z" fill="#EBEBEB"/>
<path d="M136.021 142.438H129.621V156.683H136.021V142.438Z" fill="#EBEBEB"/>
<path d="M171.013 142.438H164.613V156.683H171.013V142.438Z" fill="#EBEBEB"/>
<path d="M147.685 142.438H141.285V156.683H147.685V142.438Z" fill="#EBEBEB"/>
<path d="M159.349 142.438H152.949V156.683H159.349V142.438Z" fill="#EBEBEB"/>
<path d="M125.501 91.4033H98.1562V174.938H125.501V91.4033Z" fill="#E6E6E6"/>
<path d="M187.221 100.349H175.141V174.939H187.221V100.349Z" fill="#E6E6E6"/>
<path d="M55.4847 174.939H31.5547V140.064L55.4847 131.969V174.939Z" fill="#E6E6E6"/>
<path d="M211.001 30.9286C214.916 27.6636 222.881 21.2936 216.031 20.3836C209.451 19.5086 199.756 23.3586 196.661 26.7386C196.661 23.5036 195.136 20.4236 189.326 17.9336C180.386 14.0936 179.001 28.0486 179.471 30.6086C175.876 28.8836 164.526 29.2036 172.351 34.0686H212.071C212.071 34.0686 220.271 28.9436 211.001 30.9286Z" fill="#F5F5F5"/>
<path d="M31.7996 47.7386C31.7696 45.8786 31.5696 42.2386 34.8596 41.7386C38.0196 41.2386 40.1646 43.4336 39.8046 45.3586C41.3846 43.5136 43.5146 41.7636 47.1446 40.3586C52.7396 38.1686 46.5146 46.1186 45.0646 47.5786C47.3996 46.5786 51.9596 46.7736 46.3346 49.5436H29.8346C29.8346 49.5436 28.9296 46.6036 31.7996 47.7386Z" fill="#FAFAFA"/>
<path d="M101.037 25.6685H47.8867C47.8867 25.6685 50.9667 21.9285 55.7767 23.1085C53.5117 20.2235 52.3067 9.4085 59.8867 8.0585C63.7417 7.3735 68.2917 14.3835 68.3867 18.0585C70.2867 9.2635 75.5367 -1.9115 83.5967 0.278496C91.6567 2.4685 85.4117 18.4285 85.4117 18.4285C85.4117 18.4285 93.1567 7.1485 99.5867 12.1535C103.417 15.1535 96.2267 21.9935 96.2267 21.9935C96.2267 21.9935 105.032 21.9285 101.037 25.6685Z" fill="#F5F5F5"/>
<path d="M125.5 197.518C179.041 197.518 222.445 194.984 222.445 191.858C222.445 188.732 179.041 186.198 125.5 186.198C71.9584 186.198 28.5547 188.732 28.5547 191.858C28.5547 194.984 71.9584 197.518 125.5 197.518Z" fill="#F5F5F5"/>
<path d="M99.5966 153.553C96.8008 153.613 94.1399 154.766 92.184 156.765C90.2281 158.764 89.1328 161.449 89.1328 164.245C89.1328 167.042 90.2281 169.727 92.184 171.726C94.1399 173.724 96.8008 174.877 99.5966 174.938H101.737V153.553H99.5966Z" fill="#263238"/>
<path d="M177.5 153.553C176.077 153.522 174.661 153.776 173.337 154.3C172.013 154.823 170.807 155.606 169.789 156.602C168.771 157.598 167.963 158.787 167.411 160.1C166.859 161.412 166.574 162.822 166.574 164.246C166.574 165.67 166.859 167.079 167.411 168.392C167.963 169.705 168.771 170.894 169.789 171.89C170.807 172.886 172.013 173.668 173.337 174.192C174.661 174.715 176.077 174.969 177.5 174.938H179.635V153.553H177.5Z" fill="#263238"/>
<path d="M142.202 174.933C148.106 174.933 152.892 170.147 152.892 164.243C152.892 158.339 148.106 153.553 142.202 153.553C136.298 153.553 131.512 158.339 131.512 164.243C131.512 170.147 136.298 174.933 142.202 174.933Z" fill="#263238"/>
<path d="M64.2916 174.933C70.1955 174.933 74.9816 170.147 74.9816 164.243C74.9816 158.339 70.1955 153.553 64.2916 153.553C58.3876 153.553 53.6016 158.339 53.6016 164.243C53.6016 170.147 58.3876 174.933 64.2916 174.933Z" fill="#263238"/>
<path d="M153.811 107.568H113.246V159.108H153.811V107.568Z" fill="#002D74"/>
<path opacity="0.2" d="M153.811 107.568H113.246V159.108H153.811V107.568Z" fill="black"/>
<path d="M194.756 120.385L194.375 120.709L195.99 122.604L196.37 122.28L194.756 120.385Z" fill="#002D74"/>
<path d="M188.177 112.65L187.797 112.975L192.827 118.877L193.208 118.553L188.177 112.65Z" fill="#002D74"/>
<path d="M153.809 159.103H204.189V136.738C204.189 135.078 203.597 133.471 202.519 132.208L186.844 113.788C185.182 111.838 183.116 110.271 180.79 109.197C178.463 108.123 175.931 107.568 173.369 107.568H153.809V159.103Z" fill="#002D74"/>
<path d="M162.066 134.614V115.664C162.066 115.255 162.147 114.851 162.303 114.474C162.46 114.097 162.689 113.755 162.978 113.466C163.266 113.178 163.609 112.949 163.987 112.794C164.364 112.638 164.768 112.558 165.176 112.559H170.001C172.527 112.559 175.022 113.107 177.315 114.165C179.607 115.223 181.643 116.767 183.281 118.689L195.136 132.599C195.613 133.156 195.875 133.865 195.876 134.599C195.876 135.423 195.549 136.213 194.967 136.796C194.385 137.379 193.595 137.707 192.771 137.709H165.176C164.354 137.709 163.565 137.383 162.983 136.803C162.4 136.223 162.07 135.436 162.066 134.614Z" fill="white"/>
<path d="M204.188 153.014H197.968C197.632 153.014 197.302 152.926 197.01 152.758C196.718 152.591 196.475 152.351 196.305 152.061C196.134 151.771 196.043 151.441 196.039 151.105C196.035 150.769 196.12 150.437 196.283 150.144L197.333 148.264C197.499 147.962 197.743 147.71 198.04 147.534C198.336 147.358 198.674 147.265 199.018 147.264H204.188V153.014Z" fill="white"/>
<path d="M144.854 98.9082H46.8086V159.103H144.854V98.9082Z" fill="#002D74"/>
<path opacity="0.6" d="M144.854 98.9082H46.8086V159.103H144.854V98.9082Z" fill="white"/>
<path opacity="0.5" d="M90.0444 149.929H73.3594V153.554H90.0444V149.929Z" fill="#002D74"/>
<path opacity="0.5" d="M51.3886 149.929H46.8086V153.554H51.3886V149.929Z" fill="#002D74"/>
<path opacity="0.4" d="M80.6786 98.9082H46.8086V159.103H80.6786V98.9082Z" fill="#002D74"/>
<path opacity="0.4" d="M62.0294 98.9082H61.4844V159.103H62.0294V98.9082Z" fill="#002D74"/>
<path d="M204.68 159.104H46.32C45.8671 159.104 45.5 159.471 45.5 159.924V162.459C45.5 162.911 45.8671 163.279 46.32 163.279H204.68C205.133 163.279 205.5 162.911 205.5 162.459V159.924C205.5 159.471 205.133 159.104 204.68 159.104Z" fill="#263238"/>
<path d="M179.643 174.933C185.547 174.933 190.333 170.147 190.333 164.243C190.333 158.339 185.547 153.553 179.643 153.553C173.739 153.553 168.953 158.339 168.953 164.243C168.953 170.147 173.739 174.933 179.643 174.933Z" fill="#263238"/>
<path d="M179.646 171.123C183.445 171.123 186.526 168.043 186.526 164.243C186.526 160.444 183.445 157.363 179.646 157.363C175.846 157.363 172.766 160.444 172.766 164.243C172.766 168.043 175.846 171.123 179.646 171.123Z" fill="white"/>
<path d="M101.737 174.933C107.641 174.933 112.427 170.147 112.427 164.243C112.427 158.339 107.641 153.553 101.737 153.553C95.833 153.553 91.0469 158.339 91.0469 164.243C91.0469 170.147 95.833 174.933 101.737 174.933Z" fill="#263238"/>
<path d="M101.735 171.123C105.535 171.123 108.615 168.043 108.615 164.243C108.615 160.444 105.535 157.363 101.735 157.363C97.9357 157.363 94.8555 160.444 94.8555 164.243C94.8555 168.043 97.9357 171.123 101.735 171.123Z" fill="white"/>
<path d="M115.671 187.503L111.421 187.438L110.266 177.583L114.511 177.653L115.671 187.503Z" fill="#002D74"/>
<path d="M111.311 186.948L115.941 187.018C116.022 187.018 116.101 187.048 116.162 187.102C116.223 187.157 116.262 187.232 116.271 187.313L116.676 191.103C116.683 191.199 116.671 191.296 116.639 191.387C116.607 191.477 116.557 191.561 116.491 191.631C116.425 191.701 116.345 191.757 116.256 191.794C116.167 191.831 116.072 191.85 115.976 191.848C114.311 191.793 111.906 191.658 109.806 191.628C107.351 191.588 107.591 191.688 104.711 191.628C102.971 191.603 102.711 189.828 103.441 189.683C106.841 189.008 107.181 188.973 110.251 187.248C110.571 187.057 110.937 186.953 111.311 186.948Z" fill="#263238"/>
<path d="M107.159 60.4927C105.769 63.4627 104.279 66.2678 102.624 69.0678C101.794 70.4578 100.939 71.8427 100.014 73.2027C99.5638 73.8827 99.0788 74.5578 98.5988 75.2328C98.1188 75.9078 97.5988 76.5728 97.0438 77.2328L96.6339 77.7328C96.426 77.9899 96.2022 78.2337 95.9638 78.4628C95.8068 78.6169 95.6398 78.7606 95.4638 78.8928C95.2713 79.0404 95.0673 79.1725 94.8539 79.2878C94.3866 79.5472 93.8798 79.7279 93.3539 79.8228C92.3974 79.9807 91.4157 79.8628 90.5239 79.4828C89.9102 79.2165 89.3364 78.8665 88.8188 78.4428C88.0384 77.7983 87.3428 77.0574 86.7488 76.2378C86.2236 75.5273 85.7363 74.7896 85.2888 74.0278C84.4558 72.5833 83.7127 71.0888 83.0639 69.5528C82.4213 68.0452 81.8588 66.5047 81.3788 64.9377C81.2609 64.5342 81.2922 64.1016 81.4671 63.7192C81.6419 63.3368 81.9486 63.0301 82.331 62.8553C82.7134 62.6805 83.146 62.6492 83.5496 62.7672C83.9532 62.8852 84.3008 63.1445 84.5288 63.4978L84.5588 63.5428C86.1307 66.1345 87.8433 68.6382 89.6889 71.0428C90.1207 71.5902 90.5814 72.1142 91.0688 72.6128C91.4595 73.0237 91.8937 73.3909 92.3638 73.7078C92.5438 73.8128 92.6888 73.8628 92.6988 73.8428C92.7088 73.8228 92.5188 73.7278 92.1988 73.7628C91.9856 73.7991 91.7817 73.8773 91.5988 73.9928C91.5738 73.9928 91.5488 74.0278 91.6938 73.8277L92.0038 73.3827C93.6725 70.8861 95.2128 68.3061 96.6189 65.6528C98.0789 62.9728 99.5138 60.1928 100.879 57.4978V57.4478C101.285 56.613 102.007 55.9739 102.884 55.671C103.762 55.3681 104.724 55.4263 105.559 55.8328C106.394 56.2392 107.033 56.9606 107.336 57.8383C107.638 58.7159 107.58 59.678 107.174 60.5128L107.159 60.4927Z" fill="#002D74"/>
<path d="M84.6944 64.7378L83.5544 60.0078L79.1094 61.9228C79.1094 61.9228 79.5044 65.6778 82.6094 66.1428L84.6944 64.7378Z" fill="#263238"/>
<path d="M84.4577 63.5732C84.4577 63.5732 85.9027 65.4332 86.2577 65.9432C85.7577 66.4432 82.4827 68.0982 82.2227 67.9432C81.8077 66.7582 81.2227 65.1932 81.2227 65.1932L84.4577 63.5732Z" fill="#263238"/>
<path d="M80.2294 56.9976L78.5943 58.5676C78.4649 58.6953 78.3728 58.8559 78.3279 59.0321C78.283 59.2084 78.2869 59.3935 78.3393 59.5676L79.1093 61.9026L83.5543 59.9876L81.7294 57.1626C81.6478 57.0451 81.5421 56.9464 81.4192 56.8732C81.2963 56.8 81.1591 56.7541 81.0169 56.7384C80.8748 56.7228 80.7309 56.7378 80.595 56.7825C80.4591 56.8272 80.3345 56.9006 80.2294 56.9976Z" fill="#263238"/>
<path d="M82.751 62.5226C82.596 61.5626 83.556 58.5525 84.361 58.1225C85.166 57.6925 84.706 59.7675 84.811 60.4676C85.101 62.3875 85.201 64.2175 84.216 64.1175C83.231 64.0175 83.001 64.1926 82.751 62.5226Z" fill="#263238"/>
<path opacity="0.2" d="M110.266 177.588L110.861 182.668L115.111 182.733L114.516 177.653L110.266 177.588Z" fill="black"/>
<path d="M103.726 54.8182C111.806 53.8182 119.626 54.8982 123.886 55.7232C124.315 55.8072 124.724 55.9758 125.087 56.2191C125.45 56.4624 125.762 56.7757 126.003 57.1405C126.244 57.5054 126.41 57.9146 126.491 58.3443C126.572 58.7739 126.567 59.2155 126.476 59.6432C123.306 74.7932 123.801 90.0332 123.536 93.2732L100.816 92.9082C99.2613 74.3332 100.241 62.5032 100.841 57.6782C100.935 56.9484 101.27 56.2707 101.792 55.7526C102.315 55.2346 102.996 54.9057 103.726 54.8182Z" fill="#002D74"/>
<path d="M118.074 44.1084C117.354 47.1634 116.534 52.7934 118.634 55.0234C116.884 56.5734 114.604 58.3434 110.909 58.1984C107.214 58.0534 107.954 55.5734 108.979 54.3084C112.479 53.7384 112.479 51.1684 111.979 48.7184L118.074 44.1084Z" fill="#FFB573"/>
<path opacity="0.2" d="M115.585 45.9883L111.965 48.7383C112.093 49.307 112.172 49.8859 112.2 50.4683C113.53 50.3783 115.4 49.0633 115.595 47.6933C115.696 47.1291 115.692 46.5512 115.585 45.9883Z" fill="black"/>
<path d="M119.105 39.4726C118.57 43.6476 118.475 46.1226 116.21 48.1176C112.81 51.1176 107.755 48.8126 107.025 44.5526C106.37 40.7126 107.35 34.5526 111.57 33.1626C112.505 32.8609 113.5 32.8012 114.464 32.989C115.428 33.1768 116.328 33.6059 117.081 34.2363C117.834 34.8667 118.414 35.6776 118.768 36.5934C119.122 37.5092 119.238 38.4998 119.105 39.4726Z" fill="#FFB573"/>
<path d="M119.348 43.0982C117.698 44.0982 115.813 43.5982 115.658 42.5482C115.503 41.4982 116.728 39.6832 117.188 38.7982C117.058 37.2982 115.998 36.8582 116.188 35.7982C114.953 35.9132 108.218 36.2182 108.378 34.6982C108.538 33.1782 111.208 31.6132 114.378 32.0082C117.548 32.4032 119.623 33.7832 119.323 35.7132C121.093 35.4282 121.908 38.4232 119.348 43.0982Z" fill="#263238"/>
<path d="M120.824 43.7382C120.545 44.1823 120.18 44.5664 119.75 44.8685C119.321 45.1706 118.837 45.3846 118.324 45.4982C116.954 45.7932 116.324 44.5482 116.779 43.2982C117.174 42.1682 118.364 40.6582 119.714 40.9232C120.008 40.9844 120.282 41.1177 120.512 41.3112C120.741 41.5046 120.919 41.752 121.029 42.0312C121.139 42.3104 121.178 42.6126 121.142 42.9105C121.106 43.2085 120.997 43.4929 120.824 43.7382Z" fill="#FFB573"/>
<path d="M113.999 135.068C113.829 113.708 118.554 93.1932 118.554 93.1932L100.844 92.9082C100.844 92.9082 102.879 123.758 103.589 136.683C104.324 150.118 109.179 181.683 109.179 181.683L116.369 181.788C116.369 181.788 114.999 151.928 113.999 135.068Z" fill="#002D74"/>
<path opacity="0.4" d="M113.999 135.068C113.829 113.708 118.554 93.1932 118.554 93.1932L100.844 92.9082C100.844 92.9082 102.879 123.758 103.589 136.683C104.324 150.118 109.179 181.683 109.179 181.683L116.369 181.788C116.369 181.788 114.999 151.928 113.999 135.068Z" fill="black"/>
<path opacity="0.2" d="M114.689 104.948C109.639 111.858 111.909 124.858 113.979 134.048C114.061 123.915 114.922 113.804 116.554 103.803L114.689 104.948Z" fill="black"/>
<path d="M108.219 178.883L108.684 181.813L116.634 181.948L117.084 179.178L108.219 178.883Z" fill="#263238"/>
<path d="M113.499 40.1731C113.499 40.5131 113.279 40.7781 113.054 40.7581C112.829 40.7381 112.669 40.4531 112.694 40.1131C112.719 39.7731 112.914 39.5081 113.139 39.5231C113.364 39.5381 113.539 39.8281 113.499 40.1731Z" fill="#263238"/>
<path d="M109.093 39.6779C109.093 40.0229 108.873 40.2829 108.648 40.2679C108.423 40.2529 108.263 39.958 108.288 39.618C108.313 39.278 108.508 39.013 108.733 39.028C108.958 39.043 109.118 39.3379 109.093 39.6779Z" fill="#263238"/>
<path d="M110.001 39.9531C109.526 40.967 108.912 41.9095 108.176 42.7531C108.398 42.937 108.657 43.0707 108.936 43.1449C109.215 43.2191 109.507 43.2322 109.791 43.1831L110.001 39.9531Z" fill="#ED893E"/>
<path d="M111.18 44.3934C111.564 44.3746 111.941 44.2759 112.285 44.1038C112.629 43.9316 112.934 43.6897 113.18 43.3934C113.196 43.3722 113.203 43.3455 113.199 43.3193C113.195 43.293 113.181 43.2693 113.16 43.2534C113.139 43.2375 113.112 43.2307 113.086 43.2344C113.06 43.2382 113.036 43.2522 113.02 43.2734C112.739 43.5917 112.386 43.8385 111.99 43.9933C111.594 44.148 111.168 44.2063 110.745 44.1634C110.73 44.16 110.714 44.1601 110.698 44.1636C110.683 44.1672 110.669 44.1742 110.656 44.184C110.644 44.1938 110.634 44.2063 110.628 44.2205C110.621 44.2347 110.617 44.2502 110.617 44.2659C110.617 44.2816 110.621 44.2971 110.628 44.3113C110.634 44.3255 110.644 44.338 110.656 44.3478C110.669 44.3576 110.683 44.3646 110.698 44.3682C110.714 44.3717 110.73 44.3718 110.745 44.3684C110.889 44.3863 111.035 44.3947 111.18 44.3934Z" fill="#263238"/>
<path d="M114.22 39.0276C114.254 39.027 114.287 39.0166 114.315 38.9976C114.337 38.983 114.356 38.9641 114.371 38.942C114.386 38.92 114.396 38.8952 114.401 38.8691C114.406 38.843 114.406 38.8162 114.401 38.7902C114.395 38.7642 114.385 38.7395 114.37 38.7176C114.202 38.4441 113.971 38.215 113.696 38.0497C113.421 37.8843 113.11 37.7876 112.79 37.7676C112.737 37.7676 112.686 37.7886 112.648 37.8262C112.611 37.8637 112.59 37.9145 112.59 37.9676C112.59 38.0219 112.611 38.0741 112.65 38.1125C112.688 38.151 112.74 38.1726 112.795 38.1726C113.047 38.1936 113.291 38.2739 113.506 38.4068C113.722 38.5397 113.903 38.7216 114.035 38.9376C114.055 38.9679 114.082 38.9923 114.115 39.0082C114.147 39.024 114.184 39.0307 114.22 39.0276Z" fill="#263238"/>
<path d="M107.199 38.0934C107.231 38.0981 107.264 38.0946 107.295 38.0832C107.326 38.0719 107.353 38.053 107.374 38.0284C107.533 37.8325 107.737 37.6777 107.969 37.5767C108.2 37.4758 108.452 37.4318 108.704 37.4484C108.757 37.4542 108.81 37.4391 108.852 37.4064C108.894 37.3738 108.922 37.3261 108.929 37.2734C108.933 37.2471 108.931 37.2204 108.924 37.1948C108.917 37.1692 108.905 37.1452 108.889 37.1243C108.873 37.1034 108.852 37.0859 108.829 37.0728C108.806 37.0598 108.781 37.0515 108.754 37.0484C108.437 37.0249 108.118 37.0775 107.825 37.2019C107.532 37.3262 107.273 37.5188 107.069 37.7634C107.036 37.804 107.02 37.8562 107.024 37.9086C107.029 37.961 107.054 38.0094 107.094 38.0434C107.122 38.0716 107.16 38.0892 107.199 38.0934Z" fill="#263238"/>
<path d="M138.181 187.503L133.926 187.438L132.176 177.583L136.431 177.653L138.181 187.503Z" fill="#002D74"/>
<path d="M133.694 186.948L138.324 187.018C138.406 187.018 138.486 187.048 138.548 187.102C138.611 187.156 138.652 187.231 138.664 187.313L139.199 191.103C139.211 191.197 139.203 191.293 139.174 191.384C139.146 191.475 139.099 191.559 139.035 191.629C138.971 191.7 138.893 191.756 138.806 191.794C138.718 191.832 138.624 191.85 138.529 191.848C136.859 191.793 136.334 191.658 134.234 191.628C131.774 191.588 132.914 191.688 130.029 191.628C128.289 191.603 127.949 189.838 128.689 189.683C131.029 189.183 131.614 188.248 132.644 187.248C132.941 187.015 133.318 186.907 133.694 186.948Z" fill="#263238"/>
<path d="M134.581 187.393C133.846 187.418 133.451 187.393 133.261 187.058C133.071 186.723 132.406 185.748 132.456 185.383C132.506 185.018 135.491 184.718 135.786 185.308C136.081 185.898 136.081 187.353 134.581 187.393Z" fill="#263238"/>
<path d="M111.148 187.393C110.688 187.418 110.443 187.393 110.333 187.058C110.105 186.522 109.947 185.959 109.863 185.383C109.898 185.013 111.773 184.718 111.948 185.308C112.123 185.898 112.083 187.353 111.148 187.393Z" fill="#263238"/>
<path opacity="0.2" d="M132.176 177.588L133.081 182.668L137.336 182.733L136.431 177.653L132.176 177.588Z" fill="black"/>
<path d="M130.905 132.543C128.905 113.303 126.555 97.5432 123.545 93.2732L108.5 93.0332C108.5 93.0332 117.275 123.213 120.655 135.933C124.155 149.158 131.06 180.403 131.06 180.403L137.91 180.498C137.91 180.498 135.075 147.573 130.905 132.543Z" fill="#002D74"/>
<path opacity="0.4" d="M130.905 132.543C128.905 113.303 126.555 97.5432 123.545 93.2732L108.5 93.0332C108.5 93.0332 117.275 123.213 120.655 135.933C124.155 149.158 131.06 180.403 131.06 180.403L137.91 180.498C137.91 180.498 135.075 147.573 130.905 132.543Z" fill="black"/>
<path d="M130.199 178.883L130.754 181.813L138.444 181.948L138.784 179.178L130.199 178.883Z" fill="#263238"/>
<path d="M113.583 61.288C113.538 60.218 112.308 58.788 111.508 58.203C117.433 56.568 118.543 54.418 118.543 54.418C118.969 54.5287 119.377 54.6969 119.758 54.918C120.108 58.238 115.998 60.523 113.583 61.288Z" fill="white"/>
<path d="M110.088 58.1175C108.759 58.7359 107.668 59.7719 106.983 61.0676C104.518 56.6676 107.983 54.1275 107.983 54.1275C108.366 54.0192 108.768 53.992 109.163 54.0475C108.498 55.5175 109.263 57.4525 110.088 58.1175Z" fill="white"/>
<path d="M145.263 63.2035L107.625 69.0234L111.843 96.2993L149.48 90.4794L145.263 63.2035Z" fill="#002D74"/>
<path opacity="0.9" d="M145.263 63.2035L107.625 69.0234L111.843 96.2993L149.48 90.4794L145.263 63.2035Z" fill="white"/>
<path opacity="0.2" d="M145.266 63.2012L125.645 66.2354L129.862 93.5112L149.484 90.4771L145.266 63.2012Z" fill="#002D74"/>
<path opacity="0.3" d="M117.833 87.6885L113.109 88.4189L113.821 93.0242L118.545 92.2938L117.833 87.6885Z" fill="#002D74"/>
<path opacity="0.3" d="M116.95 81.9756L112.227 82.7061L112.939 87.3113L117.663 86.5809L116.95 81.9756Z" fill="#002D74"/>
<path opacity="0.5" d="M119.759 67.1497L113.098 68.1797L113.453 70.4774L120.114 69.4474L119.759 67.1497Z" fill="#002D74"/>
<path opacity="0.5" d="M140.593 63.9229L135.914 64.6465L136.269 66.9442L140.949 66.2206L140.593 63.9229Z" fill="#002D74"/>
<path d="M125.116 56.2383C128.001 57.6166 130.783 59.2006 133.441 60.9783C134.836 61.8926 136.172 62.8946 137.441 63.9783C138.136 64.5795 138.791 65.2259 139.401 65.9133C139.75 66.3183 140.073 66.7459 140.366 67.1933C140.744 67.7612 141.042 68.3787 141.251 69.0283C141.394 69.4686 141.478 69.9259 141.501 70.3883C141.508 70.4681 141.508 70.5485 141.501 70.6283V70.7983V71.1433L141.476 71.8333L141.416 72.4783C141.376 72.9083 141.331 73.3383 141.261 73.7433C141.191 74.1483 141.146 74.5683 141.066 74.9633C140.801 76.5783 140.411 78.1133 140.021 79.6433C139.208 82.6747 138.206 85.6521 137.021 88.5583C136.862 88.9506 136.566 89.272 136.189 89.4625C135.811 89.653 135.376 89.6997 134.967 89.5939C134.557 89.4881 134.2 89.237 133.961 88.8874C133.723 88.5377 133.62 88.1134 133.671 87.6933V87.6533C134.026 84.6533 134.461 81.6233 134.776 78.6533C134.951 77.1533 135.086 75.6883 135.176 74.2533C135.206 73.8933 135.206 73.5483 135.226 73.1933C135.246 72.8383 135.226 72.4983 135.226 72.1633V71.6633V71.2033V70.9733V70.8583C135.226 70.8583 135.226 70.7433 135.226 70.8083C135.222 70.8883 135.222 70.9684 135.226 71.0483C135.226 71.1033 135.171 70.9933 135.051 70.8583C134.896 70.6804 134.729 70.5133 134.551 70.3583C134.111 69.9296 133.645 69.5288 133.156 69.1583C132.096 68.3533 130.906 67.5633 129.681 66.8083C127.226 65.3083 124.586 63.8683 122.011 62.5033H121.976C121.176 62.0696 120.577 61.3417 120.305 60.4737C120.033 59.6058 120.109 58.666 120.518 57.8535C120.927 57.041 121.636 56.4196 122.495 56.1209C123.354 55.8222 124.296 55.8697 125.121 56.2533L125.116 56.2383Z" fill="#002D74"/>
<path d="M134.034 86.8926L131.484 90.3526L136.324 92.1226C136.324 92.1226 138.254 88.7076 136.604 87.3926L134.034 86.8926Z" fill="#263238"/>
<path d="M132.126 94.7725L133.926 95.1075C134.273 95.169 134.63 95.1065 134.936 94.931C135.241 94.7555 135.475 94.4782 135.596 94.1475L136.326 92.1475L131.501 90.3525L130.951 93.0075C130.873 93.3974 130.953 93.8023 131.173 94.1332C131.394 94.4642 131.736 94.6941 132.126 94.7725Z" fill="#263238"/>
<path d="M133.613 87.8526C133.613 87.8526 133.703 85.4976 133.763 84.8826C134.468 84.8376 138.038 85.6626 138.128 85.9526C137.688 87.1326 137.128 88.7026 137.128 88.7026L133.613 87.8526Z" fill="#263238"/>
<path d="M121.406 38.738C118.991 38.468 109.071 36.053 108.151 35.098C108.086 33.253 109.151 31.388 109.806 30.968C111.631 29.768 115.646 29.723 116.921 30.083C118.196 30.443 121.686 32.218 122.266 33.928C122.716 35.283 121.406 38.738 121.406 38.738Z" fill="#002D74"/>
<path d="M111.388 34.523C108.343 34.048 105.448 34.258 104.423 35.798C103.278 37.518 107.048 34.963 109.298 36.063C113.063 37.913 112.168 38.203 117.873 38.063C114.938 36.573 114.918 35.073 111.388 34.523Z" fill="#002D74"/>
<path opacity="0.6" d="M111.388 34.523C108.343 34.048 105.448 34.258 104.423 35.798C103.278 37.518 107.048 34.963 109.298 36.063C113.063 37.913 112.168 38.203 117.873 38.063C114.938 36.573 114.918 35.073 111.388 34.523Z" fill="white"/>
<path d="M118.179 41.6827C118.239 41.6395 118.279 41.5746 118.292 41.5018C118.306 41.4291 118.29 41.3541 118.249 41.2927C118.205 41.2324 118.14 41.1918 118.067 41.1796C117.994 41.1674 117.919 41.1847 117.859 41.2277C116.815 41.9483 115.842 42.767 114.954 43.6727C113.864 42.5377 110.799 41.3427 109.194 41.3677C108.049 41.3677 107.289 41.3127 106.434 42.1577C105.704 42.8727 106.309 46.6577 106.769 47.7277C107.034 48.3147 107.429 48.834 107.923 49.247C108.417 49.66 108.999 49.9559 109.624 50.1127C111.314 50.4177 114.924 50.6127 115.074 48.1427C115.105 47.5882 115.177 47.0367 115.289 46.4927C115.528 46.5337 115.771 46.5555 116.014 46.5577C116.745 46.5736 117.46 46.3428 118.044 45.9027C118.073 45.8806 118.097 45.8529 118.116 45.8212C118.134 45.7896 118.146 45.7545 118.151 45.7182C118.155 45.6819 118.153 45.645 118.143 45.6097C118.133 45.5744 118.116 45.5414 118.094 45.5127C118.071 45.4833 118.043 45.4587 118.011 45.4402C117.979 45.4218 117.943 45.4099 117.907 45.4052C117.87 45.4006 117.832 45.4033 117.797 45.4131C117.761 45.423 117.728 45.4398 117.699 45.4627C117.37 45.6955 116.998 45.8597 116.604 45.9456C116.211 46.0315 115.804 46.0373 115.409 45.9627C115.569 45.2327 115.649 44.7627 115.294 44.1527C116.17 43.2351 117.137 42.4076 118.179 41.6827Z" fill="#002D74"/>
<path opacity="0.6" d="M118.179 41.6827C118.239 41.6395 118.279 41.5746 118.292 41.5018C118.306 41.4291 118.29 41.3541 118.249 41.2927C118.205 41.2324 118.14 41.1918 118.067 41.1796C117.994 41.1674 117.919 41.1847 117.859 41.2277C116.815 41.9483 115.842 42.767 114.954 43.6727C113.864 42.5377 110.799 41.3427 109.194 41.3677C108.049 41.3677 107.289 41.3127 106.434 42.1577C105.704 42.8727 106.309 46.6577 106.769 47.7277C107.034 48.3147 107.429 48.834 107.923 49.247C108.417 49.66 108.999 49.9559 109.624 50.1127C111.314 50.4177 114.924 50.6127 115.074 48.1427C115.105 47.5882 115.177 47.0367 115.289 46.4927C115.528 46.5337 115.771 46.5555 116.014 46.5577C116.745 46.5736 117.46 46.3428 118.044 45.9027C118.073 45.8806 118.097 45.8529 118.116 45.8212C118.134 45.7896 118.146 45.7545 118.151 45.7182C118.155 45.6819 118.153 45.645 118.143 45.6097C118.133 45.5744 118.116 45.5414 118.094 45.5127C118.071 45.4833 118.043 45.4587 118.011 45.4402C117.979 45.4218 117.943 45.4099 117.907 45.4052C117.87 45.4006 117.832 45.4033 117.797 45.4131C117.761 45.423 117.728 45.4398 117.699 45.4627C117.37 45.6955 116.998 45.8597 116.604 45.9456C116.211 46.0315 115.804 46.0373 115.409 45.9627C115.569 45.2327 115.649 44.7627 115.294 44.1527C116.17 43.2351 117.137 42.4076 118.179 41.6827Z" fill="white"/>
</svg>
